:FULLY-SPECIFIED
:FORCE-ALL-JOINTS-BE-3DOF
:DEGREES
849
root 3.86617 16.3134 28.1588 -9.40729 7.0051 359.374
lfemur -22.6817 0.904907 -17.4599
ltibia 37.1252 0 0
lfoot -7.40075 -13.2299 0
ltoes 2.84716 0 0
rfemur -35.2383 -3.18342 0.992992
rtibia 103.961 0 0
rfoot 35.8 20.3354 0
rtoes -3.85262 0 0
lowerback 4.28237 2.96601 -2.8477
upperback 1.0999 3.8186 0.268989
thorax -1.45618 1.91726 1.68589
lowerneck -6.28872 -3.75822 2.48449
upperneck 9.01695 -5.43955 1.39397
head 4.0416 -2.53307 -0.268619
lclavicle 1.29494e-14 1.29494e-14 0
lhumerus -50.31 -10.5524 84.0703
lradius 55.6503 0 0
lwrist 20.9757 0 0
lhand -2.82488 3.55392 0
lfingers 7.12502 0 0
lthumb 22.8815 32.2107 0
rclavicle 1.29494e-14 1.29494e-14 0
rhumerus -38.8922 14.5012 -66.5769
rradius 51.0224 0 0
rwrist 9.15592 0 0
rhand -36.0054 -32.6254 0
rfingers 7.12502 0 0
rthumb -9.11482 -782.403 0
850
root 3.87366 16.3242 28.2496 -10.0903 8.0618 359.498
lfemur -21.706 1.27369 -17.8612
ltibia 37.0693 0 0
lfoot -7.41469 -14.436 0
ltoes 4.48166 0 0
rfemur -38.4436 -2.80208 1.1287
rtibia 103.925 0 0
rfoot 34.5275 18.5682 0
rtoes -3.11021 0 0
lowerback 5.15934 2.58205 -3.16129
upperback 1.41507 3.25429 0.125798
thorax -1.5915 1.63477 1.73804
lowerneck -6.22101 -3.73195 2.47618
upperneck 8.94784 -5.41251 1.53516
head 4.00865 -2.51527 -0.216613
lclavicle 9.42454e-15 1.15863e-14 0
lhumerus -49.2207 -11.432 83.6792
lradius 55.4963 0 0
lwrist 21.2084 0 0
lhand -2.2888 3.6213 0
lfingers 7.12502 0 0
lthumb 23.3955 32.2096 0
rclavicle 9.42454e-15 1.15863e-14 0
rhumerus -39.8603 13.5144 -65.6701
rradius 51.07 0 0
rwrist 8.70857 0 0
rhand -35.3752 -32.5437 0
rfingers 7.12502 0 0
rthumb -8.50654 -782.343 0
851
root 3.88115 16.3351 28.3403 -10.7734 9.1185 359.622
lfemur -20.7303 1.64246 -18.2626
ltibia 37.0133 0 0
lfoot -7.42864 -15.6422 0
ltoes 6.11617 0 0
rfemur -41.6489 -2.42075 1.2644
rtibia 103.89 0 0
rfoot 33.2549 16.8009 0
rtoes -2.36781 0 0
lowerback 6.03631 2.19809 -3.47489
upperback 1.73025 2.68999 -0.0173919
thorax -1.72683 1.35227 1.79019
lowerneck -6.1533 -3.70569 2.46788
upperneck 8.87872 -5.38546 1.67636
head 3.9757 -2.49747 -0.164607
lclavicle 5.89966e-15 1.02232e-14 0
lhumerus -48.1314 -12.3116 83.288
lradius 55.3424 0 0
lwrist 21.441 0 0
lhand -1.75272 3.68867 0
lfingers 7.12502 0 0
lthumb 23.9095 32.2086 0
rclavicle 5.89966e-15 1.02232e-14 0
rhumerus -40.8285 12.5275 -64.7634
rradius 51.1176 0 0
rwrist 8.26123 0 0
rhand -34.745 -32.4619 0
rfingers 7.12502 0 0
rthumb -7.89826 -782.283 0
852
root 3.88865 16.3459 28.431 -11.4564 10.1752 359.747
lfemur -19.7546 2.01124 -18.6639
ltibia 36.9573 0 0
lfoot -7.44259 -16.8484 0
ltoes 7.75068 0 0
rfemur -44.8542 -2.03941 1.4001
rtibia 103.855 0 0
rfoot 31.9823 15.0336 0
rtoes -1.62541 0 0
lowerback 6.91329 1.81412 -3.78848
upperback 2.04543 2.12568 -0.160582
thorax -1.86215 1.06977 1.84234
lowerneck -6.08559 -3.67942 2.45957
upperneck 8.8096 -5.35841 1.81755
head 3.94274 -2.47967 -0.112601
lclavicle 2.37477e-15 8.86012e-15 0
lhumerus -47.0421 -13.1913 82.8969
lradius 55.1884 0 0
lwrist 21.6736 0 0
lhand -1.21665 3.75605 0
lfingers 7.12502 0 0
lthumb 24.4234 32.2076 0
rclavicle 2.37477e-15 8.86012e-15 0
rhumerus -41.7967 11.5407 -63.8567
rradius 51.1653 0 0
rwrist 7.81389 0 0
rhand -34.1147 -32.3802 0
rfingers 7.12502 0 0
rthumb -7.28997 -782.224 0
853
root 3.89614 16.3568 28.5217 -12.1394 11.2319 359.871
lfemur -18.7789 2.38002 -19.0653
ltibia 36.9013 0 0
lfoot -7.45654 -18.0546 0
ltoes 9.38519 0 0
rfemur -48.0595 -1.65808 1.5358
rtibia 103.82 0 0
rfoot 30.7097 13.2664 0
rtoes -0.883006 0 0
lowerback 7.79026 1.43016 -4.10208
upperback 2.36061 1.56138 -0.303772
thorax -1.99748 0.787278 1.89449
lowerneck -6.01788 -3.65316 2.45127
upperneck 8.74048 -5.33136 1.95875
head 3.90979 -2.46187 -0.0605954
lclavicle -1.15011e-15 7.49702e-15 0
lhumerus -45.9528 -14.0709 82.5057
lradius 55.0345 0 0
lwrist 21.9062 0 0
lhand -0.680566 3.82342 0
lfingers 7.12502 0 0
lthumb 24.9374 32.2066 0
rclavicle -1.15011e-15 7.49702e-15 0
rhumerus -42.7649 10.5538 -62.95
rradius 51.2129 0 0
rwrist 7.36655 0 0
rhand -33.4845 -32.2984 0
rfingers 7.12502 0 0
rthumb -6.68169 -782.164 0
854
root 3.90363 16.3676 28.6125 -12.8225 12.2886 359.995
lfemur -17.8032 2.7488 -19.4666
ltibia 36.8454 0 0
lfoot -7.47048 -19.2607 0
ltoes 11.0197 0 0
rfemur -51.2648 -1.27674 1.67151
rtibia 103.784 0 0
rfoot 29.4372 11.4991 0
rtoes -0.140604 0 0
lowerback 8.66723 1.0462 -4.41567
upperback 2.67579 0.997075 -0.446963
thorax -2.1328 0.504781 1.94664
lowerneck -5.95017 -3.62689 2.44296
upperneck 8.67137 -5.30432 2.09994
head 3.87684 -2.44407 -0.00858943
lclavicle -4.67499e-15 6.13393e-15 0
lhumerus -44.8635 -14.9506 82.1146
lradius 54.8805 0 0
lwrist 22.1389 0 0
lhand -0.144488 3.8908 0
lfingers 7.12502 0 0
lthumb 25.4514 32.2055 0
rclavicle -4.67499e-15 6.13393e-15 0
rhumerus -43.733 9.56697 -62.0432
rradius 51.2605 0 0
rwrist 6.9192 0 0
rhand -32.8543 -32.2167 0
rfingers 7.12502 0 0
rthumb -6.07341 -782.104 0
